<?xml version="1.0" encoding="UTF-8" standalone="no"?>
<!-- Generator: Adobe Illustrator 19.0.0, SVG Export Plug-In . SVG Version: 6.00 Build 0)  -->

<svg
   xmlns:dc="http://purl.org/dc/elements/1.1/"
   xmlns:cc="http://creativecommons.org/ns#"
   xmlns:rdf="http://www.w3.org/1999/02/22-rdf-syntax-ns#"
   xmlns:svg="http://www.w3.org/2000/svg"
   xmlns="http://www.w3.org/2000/svg"
   xmlns:sodipodi="http://sodipodi.sourceforge.net/DTD/sodipodi-0.dtd"
   xmlns:inkscape="http://www.inkscape.org/namespaces/inkscape"
   version="1.1"
   id="Layer_1"
   x="0px"
   y="0px"
   viewBox="0 0 99.999998 99.999998"
   xml:space="preserve"
   sodipodi:docname="youtube.svg"
   width="100"
   height="100"
   inkscape:version="0.92.1 r15371"><metadata
     id="metadata5723"><rdf:RDF><cc:Work
         rdf:about=""><dc:format>image/svg+xml</dc:format><dc:type
           rdf:resource="http://purl.org/dc/dcmitype/StillImage" /><dc:title></dc:title></cc:Work></rdf:RDF></metadata><defs
     id="defs5721" /><sodipodi:namedview
     pagecolor="#ffffff"
     bordercolor="#666666"
     borderopacity="1"
     objecttolerance="10"
     gridtolerance="10"
     guidetolerance="10"
     inkscape:pageopacity="0"
     inkscape:pageshadow="2"
     inkscape:window-width="1920"
     inkscape:window-height="1057"
     id="namedview5719"
     showgrid="false"
     inkscape:zoom="3.3201602"
     inkscape:cx="138.99354"
     inkscape:cy="26.523409"
     inkscape:window-x="1912"
     inkscape:window-y="-8"
     inkscape:window-maximized="1"
     inkscape:current-layer="Layer_1" /><path
     style="fill:#f61c0d;stroke-width:1"
     d="M 79.231282,14.618731 H 20.768719 C 9.2984614,14.618731 0,23.917192 0,35.387449 v 29.2251 c 0,11.470258 9.2984614,20.76872 20.768719,20.76872 H 79.231282 C 90.701539,85.381269 100,76.082807 100,64.612549 v -29.2251 C 100,23.917192 90.701539,14.618731 79.231282,14.618731 Z M 65.185542,51.421905 37.840699,64.463743 C 37.112067,64.811248 36.27042,64.280012 36.27042,63.472856 V 36.573998 c 0,-0.818654 0.863773,-1.349238 1.593923,-0.979174 l 27.344843,13.857021 c 0.813014,0.411929 0.798914,1.57787 -0.02364,1.97006 z"
     id="path5686"
     inkscape:connector-curvature="0" /><g
     id="g5688"
     transform="translate(0,-361.00101)" /><g
     id="g5690"
     transform="translate(0,-361.00101)" /><g
     id="g5692"
     transform="translate(0,-361.00101)" /><g
     id="g5694"
     transform="translate(0,-361.00101)" /><g
     id="g5696"
     transform="translate(0,-361.00101)" /><g
     id="g5698"
     transform="translate(0,-361.00101)" /><g
     id="g5700"
     transform="translate(0,-361.00101)" /><g
     id="g5702"
     transform="translate(0,-361.00101)" /><g
     id="g5704"
     transform="translate(0,-361.00101)" /><g
     id="g5706"
     transform="translate(0,-361.00101)" /><g
     id="g5708"
     transform="translate(0,-361.00101)" /><g
     id="g5710"
     transform="translate(0,-361.00101)" /><g
     id="g5712"
     transform="translate(0,-361.00101)" /><g
     id="g5714"
     transform="translate(0,-361.00101)" /><g
     id="g5716"
     transform="translate(0,-361.00101)" /></svg>