<?xml version="1.0" encoding="UTF-8" standalone="no"?>
<!-- Generator: Adobe Illustrator 19.0.0, SVG Export Plug-In . SVG Version: 6.00 Build 0)  -->

<svg
   xmlns:dc="http://purl.org/dc/elements/1.1/"
   xmlns:cc="http://creativecommons.org/ns#"
   xmlns:rdf="http://www.w3.org/1999/02/22-rdf-syntax-ns#"
   xmlns:svg="http://www.w3.org/2000/svg"
   xmlns="http://www.w3.org/2000/svg"
   xmlns:sodipodi="http://sodipodi.sourceforge.net/DTD/sodipodi-0.dtd"
   xmlns:inkscape="http://www.inkscape.org/namespaces/inkscape"
   version="1.1"
   id="Layer_1"
   x="0px"
   y="0px"
   viewBox="0 0 100 100"
   xml:space="preserve"
   sodipodi:docname="instagram.svg"
   width="100"
   height="100"
   inkscape:version="0.92.1 r15371"><metadata
     id="metadata72"><rdf:RDF><cc:Work
         rdf:about=""><dc:format>image/svg+xml</dc:format><dc:type
           rdf:resource="http://purl.org/dc/dcmitype/StillImage" /><dc:title></dc:title></cc:Work></rdf:RDF></metadata><defs
     id="defs70" /><sodipodi:namedview
     pagecolor="#ffffff"
     bordercolor="#666666"
     borderopacity="1"
     objecttolerance="10"
     gridtolerance="10"
     guidetolerance="10"
     inkscape:pageopacity="0"
     inkscape:pageshadow="2"
     inkscape:window-width="1920"
     inkscape:window-height="1057"
     id="namedview68"
     showgrid="false"
     inkscape:zoom="2.777682"
     inkscape:cx="35.146376"
     inkscape:cy="149.43553"
     inkscape:window-x="1912"
     inkscape:window-y="-8"
     inkscape:window-maximized="1"
     inkscape:current-layer="Layer_1" /><g
     id="g35"
     transform="matrix(0.18147701,0,0,0.18147701,0,1e-5)"
     style="stroke-width:5.51034021"><linearGradient
       id="SVGID_1_"
       gradientUnits="userSpaceOnUse"
       x1="275.517"
       y1="4.5700002"
       x2="275.517"
       y2="549.71997"
       gradientTransform="matrix(1,0,0,-1,0,554)"><stop
         offset="0"
         style="stop-color:#E09B3D"
         id="stop2" /><stop
         offset="0.3"
         style="stop-color:#C74C4D"
         id="stop4" /><stop
         offset="0.6"
         style="stop-color:#C21975"
         id="stop6" /><stop
         offset="1"
         style="stop-color:#7024C4"
         id="stop8" /></linearGradient><path
       style="fill:url(#SVGID_1_);stroke-width:5.51034021"
       d="M 386.878,0 H 164.156 C 73.64,0 0,73.64 0,164.156 v 222.722 c 0,90.516 73.64,164.156 164.156,164.156 h 222.722 c 90.516,0 164.156,-73.64 164.156,-164.156 V 164.156 C 551.033,73.64 477.393,0 386.878,0 Z M 495.6,386.878 C 495.6,446.923 446.923,495.6 386.878,495.6 H 164.156 C 104.111,495.6 55.434,446.923 55.434,386.878 V 164.156 c 0,-60.046 48.677,-108.722 108.722,-108.722 h 222.722 c 60.045,0 108.722,48.676 108.722,108.722 z"
       id="path11"
       inkscape:connector-curvature="0" /><linearGradient
       id="SVGID_2_"
       gradientUnits="userSpaceOnUse"
       x1="275.517"
       y1="4.5700002"
       x2="275.517"
       y2="549.71997"
       gradientTransform="matrix(1,0,0,-1,0,554)"><stop
         offset="0"
         style="stop-color:#E09B3D"
         id="stop13" /><stop
         offset="0.3"
         style="stop-color:#C74C4D"
         id="stop15" /><stop
         offset="0.6"
         style="stop-color:#C21975"
         id="stop17" /><stop
         offset="1"
         style="stop-color:#7024C4"
         id="stop19" /></linearGradient><path
       style="fill:url(#SVGID_2_);stroke-width:5.51034021"
       d="M 275.517,133 C 196.933,133 133,196.933 133,275.516 c 0,78.583 63.933,142.517 142.517,142.517 78.584,0 142.517,-63.933 142.517,-142.517 C 418.034,196.932 354.101,133 275.517,133 Z m 0,229.6 c -48.095,0 -87.083,-38.988 -87.083,-87.083 0,-48.095 38.989,-87.083 87.083,-87.083 48.095,0 87.083,38.988 87.083,87.083 0,48.094 -38.989,87.083 -87.083,87.083 z"
       id="path22"
       inkscape:connector-curvature="0" /><linearGradient
       id="SVGID_3_"
       gradientUnits="userSpaceOnUse"
       x1="418.31"
       y1="4.5700002"
       x2="418.31"
       y2="549.71997"
       gradientTransform="matrix(1,0,0,-1,0,554)"><stop
         offset="0"
         style="stop-color:#E09B3D"
         id="stop24" /><stop
         offset="0.3"
         style="stop-color:#C74C4D"
         id="stop26" /><stop
         offset="0.6"
         style="stop-color:#C21975"
         id="stop28" /><stop
         offset="1"
         style="stop-color:#7024C4"
         id="stop30" /></linearGradient><circle
       style="fill:url(#SVGID_3_);stroke-width:5.51034021"
       cx="418.31"
       cy="134.07001"
       r="34.150002"
       id="circle33" /></g><g
     id="g37"
     transform="translate(0,-451.03399)" /><g
     id="g39"
     transform="translate(0,-451.03399)" /><g
     id="g41"
     transform="translate(0,-451.03399)" /><g
     id="g43"
     transform="translate(0,-451.03399)" /><g
     id="g45"
     transform="translate(0,-451.03399)" /><g
     id="g47"
     transform="translate(0,-451.03399)" /><g
     id="g49"
     transform="translate(0,-451.03399)" /><g
     id="g51"
     transform="translate(0,-451.03399)" /><g
     id="g53"
     transform="translate(0,-451.03399)" /><g
     id="g55"
     transform="translate(0,-451.03399)" /><g
     id="g57"
     transform="translate(0,-451.03399)" /><g
     id="g59"
     transform="translate(0,-451.03399)" /><g
     id="g61"
     transform="translate(0,-451.03399)" /><g
     id="g63"
     transform="translate(0,-451.03399)" /><g
     id="g65"
     transform="translate(0,-451.03399)" /></svg>