<?xml version="1.0" encoding="UTF-8" standalone="no"?>
<!-- Generator: Adobe Illustrator 19.0.0, SVG Export Plug-In . SVG Version: 6.00 Build 0)  -->

<svg
   xmlns:dc="http://purl.org/dc/elements/1.1/"
   xmlns:cc="http://creativecommons.org/ns#"
   xmlns:rdf="http://www.w3.org/1999/02/22-rdf-syntax-ns#"
   xmlns:svg="http://www.w3.org/2000/svg"
   xmlns="http://www.w3.org/2000/svg"
   xmlns:sodipodi="http://sodipodi.sourceforge.net/DTD/sodipodi-0.dtd"
   xmlns:inkscape="http://www.inkscape.org/namespaces/inkscape"
   version="1.1"
   id="Layer_1"
   x="0px"
   y="0px"
   viewBox="0 0 100 100"
   xml:space="preserve"
   sodipodi:docname="medium.svg"
   width="100"
   height="100"
   inkscape:version="0.92.1 r15371"><metadata
     id="metadata4559"><rdf:RDF><cc:Work
         rdf:about=""><dc:format>image/svg+xml</dc:format><dc:type
           rdf:resource="http://purl.org/dc/dcmitype/StillImage" /><dc:title></dc:title></cc:Work></rdf:RDF></metadata><defs
     id="defs4557" /><sodipodi:namedview
     pagecolor="#ffffff"
     bordercolor="#666666"
     borderopacity="1"
     objecttolerance="10"
     gridtolerance="10"
     guidetolerance="10"
     inkscape:pageopacity="0"
     inkscape:pageshadow="2"
     inkscape:window-width="1920"
     inkscape:window-height="1057"
     id="namedview4555"
     showgrid="false"
     inkscape:zoom="5.5002945"
     inkscape:cx="73.256932"
     inkscape:cy="52.681735"
     inkscape:window-x="1912"
     inkscape:window-y="-8"
     inkscape:window-maximized="1"
     inkscape:current-layer="Layer_1" /><path
     style="fill:#00fd8d;stroke-width:0.99999988"
     d="M 97.58704,92.259413 66.788468,77.453585 66.556472,10.336816 c -0.0053,-1.5668002 1.630325,-2.5992213 3.042377,-1.9202578 L 98.797331,22.457281 C 99.532452,22.810739 100,23.554499 100,24.370168 v 66.371995 c -2.51e-4,1.240277 -1.295415,2.054678 -2.41296,1.51725 z"
     id="path4516"
     inkscape:connector-curvature="0" /><path
     style="fill:#00e470;stroke-width:0.99999988"
     d="M 66.788468,77.453585 33.455221,61.426793 65.545396,8.59316 C 66.1123,7.659839 67.295151,7.3089227 68.279291,7.7820628 L 97.885865,22.019207 c 1.131776,0.544289 1.546217,1.946684 0.891902,3.018491 z"
     id="path4518"
     inkscape:connector-curvature="0" /><path
     style="fill:#00c967;stroke-width:0.99999988"
     d="M 66.788468,77.453585 33.455221,61.426793 2.902112,11.673906 C 2.0508665,10.287774 3.5320335,8.6465216 4.9979545,9.3514037 L 33.455221,23.03562 Z"
     id="path4520"
     inkscape:connector-curvature="0" /><path
     style="fill:#00ad6c;stroke-width:0.99999988"
     d="M 31.042257,92.259159 0.95390318,77.790527 C 0.37073648,77.509996 0,76.920223 0,76.273275 V 9.5409647 C 0,8.3400734 1.2545071,7.5510829 2.3369865,8.0717403 L 33.455221,23.03562 v 67.70629 c 0,1.240276 -1.295421,2.054678 -2.412964,1.517249 z"
     id="path4522"
     inkscape:connector-curvature="0" /><g
     id="g4524"
     transform="translate(0,-293.54099)" /><g
     id="g4526"
     transform="translate(0,-293.54099)" /><g
     id="g4528"
     transform="translate(0,-293.54099)" /><g
     id="g4530"
     transform="translate(0,-293.54099)" /><g
     id="g4532"
     transform="translate(0,-293.54099)" /><g
     id="g4534"
     transform="translate(0,-293.54099)" /><g
     id="g4536"
     transform="translate(0,-293.54099)" /><g
     id="g4538"
     transform="translate(0,-293.54099)" /><g
     id="g4540"
     transform="translate(0,-293.54099)" /><g
     id="g4542"
     transform="translate(0,-293.54099)" /><g
     id="g4544"
     transform="translate(0,-293.54099)" /><g
     id="g4546"
     transform="translate(0,-293.54099)" /><g
     id="g4548"
     transform="translate(0,-293.54099)" /><g
     id="g4550"
     transform="translate(0,-293.54099)" /><g
     id="g4552"
     transform="translate(0,-293.54099)" /></svg>