<?xml version="1.0" encoding="UTF-8" standalone="no"?>
<!-- Generator: Adobe Illustrator 19.0.0, SVG Export Plug-In . SVG Version: 6.00 Build 0)  -->

<svg
   xmlns:dc="http://purl.org/dc/elements/1.1/"
   xmlns:cc="http://creativecommons.org/ns#"
   xmlns:rdf="http://www.w3.org/1999/02/22-rdf-syntax-ns#"
   xmlns:svg="http://www.w3.org/2000/svg"
   xmlns="http://www.w3.org/2000/svg"
   xmlns:sodipodi="http://sodipodi.sourceforge.net/DTD/sodipodi-0.dtd"
   xmlns:inkscape="http://www.inkscape.org/namespaces/inkscape"
   version="1.1"
   id="Layer_1"
   x="0px"
   y="0px"
   viewBox="0 0 100 100"
   xml:space="preserve"
   sodipodi:docname="twitter.svg"
   width="100"
   height="100"
   inkscape:version="0.92.1 r15371"><metadata
     id="metadata5141"><rdf:RDF><cc:Work
         rdf:about=""><dc:format>image/svg+xml</dc:format><dc:type
           rdf:resource="http://purl.org/dc/dcmitype/StillImage" /><dc:title></dc:title></cc:Work></rdf:RDF></metadata><defs
     id="defs5139" /><sodipodi:namedview
     pagecolor="#ffffff"
     bordercolor="#666666"
     borderopacity="1"
     objecttolerance="10"
     gridtolerance="10"
     guidetolerance="10"
     inkscape:pageopacity="0"
     inkscape:pageshadow="2"
     inkscape:window-width="1920"
     inkscape:window-height="1057"
     id="namedview5137"
     showgrid="false"
     inkscape:zoom="1.8658766"
     inkscape:cx="-47.073006"
     inkscape:cy="70.346362"
     inkscape:window-x="1912"
     inkscape:window-y="-8"
     inkscape:window-maximized="1"
     inkscape:current-layer="Layer_1" /><path
     style="fill:#76a9ea;stroke-width:0.99999994"
     d="m 98.409916,18.085827 c -2.221843,0.985237 -4.528288,1.762505 -6.894955,2.325219 2.607795,-2.478088 4.568517,-5.577649 5.674685,-9.037317 v 0 c 0.315735,-0.987676 -0.757031,-1.8417433 -1.64889,-1.31292 v 0 c -3.292414,1.952922 -6.838879,3.417978 -10.54114,4.354942 -0.214796,0.05437 -0.43642,0.08192 -0.658775,0.08192 -0.674379,0 -1.329985,-0.250395 -1.845644,-0.704856 -3.938999,-3.471616 -9.005135,-5.3835762 -14.264855,-5.3835762 -2.27597,0 -4.573881,0.3547444 -6.830102,1.05448 -6.990531,2.1682042 -12.384346,7.9345632 -14.076634,15.0489482 -0.634882,2.668503 -0.806768,5.339445 -0.51127,7.938464 0.03389,0.298668 -0.107279,0.507126 -0.194317,0.604895 -0.152868,0.171398 -0.369617,0.269653 -0.594653,0.269653 -0.02511,0 -0.05096,-0.0012 -0.07656,-0.0036 C 30.644785,31.900364 16.846095,24.528271 7.0924634,12.564011 v 0 C 6.5950904,11.953753 5.6413043,12.028603 5.2448687,12.70859 v 0 c -1.91001,3.276811 -2.9193848,7.024664 -2.9193848,10.838344 0,5.844622 2.3481372,11.352541 6.4268402,15.367853 C 7.0371185,38.508112 5.3770139,37.867622 3.8349137,37.011116 v 0 c -0.7460598,-0.414477 -1.6640056,0.11825 -1.6744894,0.971585 v 0 c -0.1067893,8.682572 4.9766564,16.408435 12.5918287,19.887365 -0.153357,0.0036 -0.306714,0.0054 -0.460315,0.0054 -1.207104,0 -2.429325,-0.116535 -3.632286,-0.346456 v 0 C 9.8194819,57.368598 9.1136511,58.165613 9.3745281,58.980185 v 0 c 2.4717489,7.716789 9.1160689,13.404885 17.0672109,14.696348 -6.59897,4.42979 -14.283628,6.766468 -22.2818262,6.766468 l -2.4934482,-0.0014 c -0.76824645,0 -1.41800097,0.500787 -1.61378067,1.244896 -0.19285398,0.732894 0.16237768,1.506016 0.81749603,1.887091 9.01269274,5.245047 19.29295604,8.01717 29.73388904,8.01717 9.139231,0 17.688196,-1.813705 25.409669,-5.390401 7.078545,-3.279024 13.333743,-7.966278 18.591757,-13.931585 4.89815,-5.556925 8.728409,-11.971819 11.383992,-19.066211 C 88.520969,46.439992 89.859,39.224183 89.859,32.335078 v -0.328169 c -2.43e-4,-1.106168 0.500055,-2.146993 1.372897,-2.855506 3.312162,-2.689228 6.196439,-5.854862 8.572371,-9.408885 v 0 c 0.627322,-0.938426 -0.362059,-2.114567 -1.394352,-1.656691 z"
     id="path5104"
     inkscape:connector-curvature="0" /><g
     id="g5106"
     transform="translate(0,-310.155)" /><g
     id="g5108"
     transform="translate(0,-310.155)" /><g
     id="g5110"
     transform="translate(0,-310.155)" /><g
     id="g5112"
     transform="translate(0,-310.155)" /><g
     id="g5114"
     transform="translate(0,-310.155)" /><g
     id="g5116"
     transform="translate(0,-310.155)" /><g
     id="g5118"
     transform="translate(0,-310.155)" /><g
     id="g5120"
     transform="translate(0,-310.155)" /><g
     id="g5122"
     transform="translate(0,-310.155)" /><g
     id="g5124"
     transform="translate(0,-310.155)" /><g
     id="g5126"
     transform="translate(0,-310.155)" /><g
     id="g5128"
     transform="translate(0,-310.155)" /><g
     id="g5130"
     transform="translate(0,-310.155)" /><g
     id="g5132"
     transform="translate(0,-310.155)" /><g
     id="g5134"
     transform="translate(0,-310.155)" /></svg>