<!-- <svg width="14" height="14" viewBox="0 0 14 14" fill="none" xmlns="http://www.w3.org/2000/svg">
<path d="M14 8H8V14H6V8H0V6H6V0H8V6H14V8Z" fill="black"/>
</svg> -->
<svg width="16" height="16" viewBox="0 0 16 16" fill="none" xmlns="http://www.w3.org/2000/svg">
<path d="M14.1643 7.07626H8.94639V1.83528C8.94639 1.30426 8.53081 0.888672 7.99978 0.888672C7.46876 0.888672 7.05317 1.30426 7.05317 1.83528V7.05317H1.83528C1.30426 7.05317 0.888672 7.46876 0.888672 7.99978C0.888672 8.53081 1.30426 8.94639 1.83528 8.94639H7.05317V14.1643C7.05317 14.6953 7.46876 15.1109 7.99978 15.1109C8.53081 15.1109 8.94639 14.6953 8.94639 14.1643V8.94639H14.1643C14.6953 8.94639 15.1109 8.53081 15.1109 7.99978C15.1109 7.46876 14.6953 7.07626 14.1643 7.07626Z" fill="#F88C2A"/>
</svg>
