<svg width="16" height="16" viewBox="0 0 16 16" fill="none" xmlns="http://www.w3.org/2000/svg">
<path d="M1.3015 3.86991H1.85964L3.16196 14.7474C3.18677 15.0079 3.41002 15.1939 3.67049 15.1939H12.3279C12.5883 15.1939 12.7992 15.0079 12.8364 14.7474L14.1387 3.86991H14.6968C14.9821 3.86991 15.2054 3.64666 15.2054 3.36139C15.2054 3.07612 14.9821 2.85286 14.6968 2.85286H13.6798H10.8023V1.30247C10.8023 1.0172 10.579 0.793945 10.2937 0.793945H5.7046C5.41933 0.793945 5.19607 1.0172 5.19607 1.30247V2.85286H2.31855H1.3015C1.01622 2.85286 0.792969 3.07612 0.792969 3.36139C0.792969 3.64666 1.02863 3.86991 1.3015 3.86991V3.86991ZM6.21312 1.811H9.78522V2.85286H6.21312V1.811V1.811ZM13.1092 3.86991L11.8813 14.1893H4.117L2.88909 3.86991H13.1092V3.86991Z" fill="#F88C2A"/>
<path d="M6.31321 12.6387C6.59849 12.6387 6.82174 12.4155 6.82174 12.1302V6.04027C6.82174 5.75499 6.59849 5.53174 6.31321 5.53174C6.02794 5.53174 5.80469 5.75499 5.80469 6.04027V12.1302C5.80469 12.4155 6.02794 12.6387 6.31321 12.6387Z" fill="#F88C2A"/>
<path d="M9.68626 12.6387C9.97153 12.6387 10.1948 12.4155 10.1948 12.1302V6.04027C10.1948 5.75499 9.97153 5.53174 9.68626 5.53174C9.40099 5.53174 9.17773 5.75499 9.17773 6.04027V12.1302C9.17773 12.4155 9.41339 12.6387 9.68626 12.6387Z" fill="#F88C2A"/>
</svg>
