<?xml version="1.0" encoding="UTF-8" standalone="no"?>
<!-- Generator: Adobe Illustrator 16.0.0, SVG Export Plug-In . SVG Version: 6.00 Build 0)  -->

<svg
   xmlns:dc="http://purl.org/dc/elements/1.1/"
   xmlns:cc="http://creativecommons.org/ns#"
   xmlns:rdf="http://www.w3.org/1999/02/22-rdf-syntax-ns#"
   xmlns:svg="http://www.w3.org/2000/svg"
   xmlns="http://www.w3.org/2000/svg"
   xmlns:sodipodi="http://sodipodi.sourceforge.net/DTD/sodipodi-0.dtd"
   xmlns:inkscape="http://www.inkscape.org/namespaces/inkscape"
   version="1.1"
   id="Capa_1"
   x="0px"
   y="0px"
   width="100"
   height="100"
   viewBox="0 0 100 100"
   xml:space="preserve"
   sodipodi:docname="arrow-pointing-to-right.svg"
   inkscape:version="0.92.1 r15371"><metadata
     id="metadata41"><rdf:RDF><cc:Work
         rdf:about=""><dc:format>image/svg+xml</dc:format><dc:type
           rdf:resource="http://purl.org/dc/dcmitype/StillImage" /><dc:title></dc:title></cc:Work></rdf:RDF></metadata><defs
     id="defs39" /><sodipodi:namedview
     pagecolor="#ffffff"
     bordercolor="#666666"
     borderopacity="1"
     objecttolerance="10"
     gridtolerance="10"
     guidetolerance="10"
     inkscape:pageopacity="0"
     inkscape:pageshadow="2"
     inkscape:window-width="1920"
     inkscape:window-height="1057"
     id="namedview37"
     showgrid="false"
     inkscape:zoom="8.0518365"
     inkscape:cx="28.488977"
     inkscape:cy="55.698544"
     inkscape:window-x="-8"
     inkscape:window-y="-8"
     inkscape:window-maximized="1"
     inkscape:current-layer="Capa_1" /><g
     id="g4"
     transform="matrix(0.37197883,0,0,0.37197883,5.920125e-7,4.7089366e-5)"
     style="stroke-width:2.68832493"><path
       d="m 265.171,125.577 -80,-80 c -4.881,-4.881 -12.797,-4.881 -17.678,0 -4.882,4.882 -4.882,12.796 0,17.678 l 58.661,58.661 H 12.5 c -6.903,0 -12.5,5.597 -12.5,12.5 0,6.902 5.597,12.5 12.5,12.5 h 213.654 l -58.659,58.661 c -4.882,4.882 -4.882,12.796 0,17.678 2.44,2.439 5.64,3.661 8.839,3.661 3.199,0 6.398,-1.222 8.839,-3.661 l 79.998,-80 c 4.882,-4.882 4.882,-12.796 0,-17.678 z"
       id="path2"
       inkscape:connector-curvature="0"
       style="stroke-width:2.68832493" /></g><g
     id="g6"
     transform="translate(0,-168.832)" /><g
     id="g8"
     transform="translate(0,-168.832)" /><g
     id="g10"
     transform="translate(0,-168.832)" /><g
     id="g12"
     transform="translate(0,-168.832)" /><g
     id="g14"
     transform="translate(0,-168.832)" /><g
     id="g16"
     transform="translate(0,-168.832)" /><g
     id="g18"
     transform="translate(0,-168.832)" /><g
     id="g20"
     transform="translate(0,-168.832)" /><g
     id="g22"
     transform="translate(0,-168.832)" /><g
     id="g24"
     transform="translate(0,-168.832)" /><g
     id="g26"
     transform="translate(0,-168.832)" /><g
     id="g28"
     transform="translate(0,-168.832)" /><g
     id="g30"
     transform="translate(0,-168.832)" /><g
     id="g32"
     transform="translate(0,-168.832)" /><g
     id="g34"
     transform="translate(0,-168.832)" /></svg>