<?xml version="1.0" encoding="UTF-8" standalone="no"?>
<!-- Generator: Adobe Illustrator 19.0.0, SVG Export Plug-In . SVG Version: 6.00 Build 0)  -->

<svg
   xmlns:dc="http://purl.org/dc/elements/1.1/"
   xmlns:cc="http://creativecommons.org/ns#"
   xmlns:rdf="http://www.w3.org/1999/02/22-rdf-syntax-ns#"
   xmlns:svg="http://www.w3.org/2000/svg"
   xmlns="http://www.w3.org/2000/svg"
   xmlns:sodipodi="http://sodipodi.sourceforge.net/DTD/sodipodi-0.dtd"
   xmlns:inkscape="http://www.inkscape.org/namespaces/inkscape"
   version="1.1"
   id="Capa_1"
   x="0px"
   y="0px"
   viewBox="0 0 46.943 46.943"
   style="enable-background:new 0 0 46.943 46.943;"
   xml:space="preserve"
   sodipodi:docname="stripe-logo.svg"
   inkscape:version="0.92.1 r15371"><metadata
     id="metadata79"><rdf:RDF><cc:Work
         rdf:about=""><dc:format>image/svg+xml</dc:format><dc:type
           rdf:resource="http://purl.org/dc/dcmitype/StillImage" /></cc:Work></rdf:RDF></metadata><defs
     id="defs77" /><sodipodi:namedview
     pagecolor="#ffffff"
     bordercolor="#666666"
     borderopacity="1"
     objecttolerance="10"
     gridtolerance="10"
     guidetolerance="10"
     inkscape:pageopacity="0"
     inkscape:pageshadow="2"
     inkscape:window-width="1920"
     inkscape:window-height="1057"
     id="namedview75"
     showgrid="false"
     inkscape:zoom="11.527764"
     inkscape:cx="1.0514566"
     inkscape:cy="18.93105"
     inkscape:window-x="-8"
     inkscape:window-y="-8"
     inkscape:window-maximized="1"
     inkscape:current-layer="Capa_1" /><g
     id="g6"
     style="fill:#ffffff;fill-opacity:1"><g
       id="g4"
       style="fill:#ffffff;fill-opacity:1"><path
         d="m 22.694,18.917 c 0,3.466 0,6.914 0,10.399 1.241,0 2.459,0 3.692,0 0,-3.473 0,-6.932 0,-10.399 -1.238,0 -2.453,0 -3.692,0 z"
         id="path2"
         inkscape:connector-curvature="0"
         style="fill:#ffffff;fill-opacity:1" /></g></g><g
     id="g12"
     style="fill:#ffffff;fill-opacity:1"><g
       id="g10"
       style="fill:#ffffff;fill-opacity:1"><path
         d="m 21.479,18.811 c -1.165,-0.31 -1.856,-0.033 -2.541,1.054 -0.136,-0.244 -0.28,-0.474 -0.394,-0.718 -0.088,-0.19 -0.21,-0.255 -0.419,-0.252 -0.803,0.013 -1.605,0.005 -2.407,0.007 -0.084,0 -0.169,0.016 -0.245,0.026 0,3.48 0,6.932 0,10.38 1.243,0 2.457,0 3.707,0 0,-0.141 0,-0.262 0,-0.384 0,-2.024 0,-4.044 0,-6.066 0,-0.762 0.105,-0.884 0.878,-0.985 0.19,-0.024 0.385,-0.037 0.574,-0.021 0.37,0.035 0.737,0.09 1.152,0.142 0,-0.945 -0.009,-1.87 0.006,-2.795 0.003,-0.244 -0.092,-0.33 -0.311,-0.388 z"
         id="path8"
         inkscape:connector-curvature="0"
         style="fill:#ffffff;fill-opacity:1" /></g></g><g
     id="g18"
     style="fill:#ffffff;fill-opacity:1"><g
       id="g16"
       style="fill:#ffffff;fill-opacity:1"><path
         d="M 6.033,23.544 C 5.672,23.282 5.251,23.099 4.854,22.889 4.546,22.724 4.204,22.608 3.932,22.398 3.784,22.286 3.666,22.008 3.694,21.829 c 0.025,-0.151 0.26,-0.334 0.435,-0.38 0.241,-0.065 0.518,-0.047 0.771,-0.01 0.623,0.094 1.24,0.218 1.883,0.336 0,-0.757 -0.01,-1.524 0.006,-2.291 C 6.794,19.262 6.715,19.169 6.513,19.104 5.253,18.699 3.969,18.584 2.671,18.849 1.452,19.097 0.523,19.722 0.167,20.992 0.091,21.259 0.055,21.539 0,21.811 c 0,0.204 0,0.407 0,0.61 0.021,0.076 0.052,0.15 0.062,0.226 0.106,0.818 0.495,1.475 1.162,1.947 0.339,0.237 0.723,0.413 1.089,0.61 0.316,0.172 0.648,0.321 0.952,0.51 0.23,0.144 0.346,0.41 0.221,0.648 -0.089,0.17 -0.309,0.351 -0.493,0.377 -0.35,0.051 -0.722,0.035 -1.075,-0.021 -0.571,-0.087 -1.134,-0.231 -1.731,-0.354 0,0.856 -0.008,1.681 0.011,2.502 0.002,0.082 0.148,0.209 0.249,0.235 1.171,0.33 2.357,0.492 3.58,0.38 C 5.911,29.31 6.961,28.33 7.157,26.46 7.278,25.309 7.025,24.266 6.033,23.544 Z"
         id="path14"
         inkscape:connector-curvature="0"
         style="fill:#ffffff;fill-opacity:1" /></g></g><g
     id="g24"
     style="fill:#ffffff;fill-opacity:1"><g
       id="g22"
       style="fill:#ffffff;fill-opacity:1"><path
         d="m 12.696,26.095 c -0.013,-0.11 -0.012,-0.228 -0.012,-0.339 -10e-4,-1.378 -10e-4,-2.757 0,-4.135 0,-0.107 0.012,-0.215 0.019,-0.349 0.505,0 0.976,0 1.459,0 0.164,-0.796 0.323,-1.567 0.491,-2.38 -0.672,0 -1.31,0 -1.98,0 0,-1.06 0,-2.08 0,-3.129 -1.012,0.243 -1.984,0.488 -2.962,0.708 -0.243,0.053 -0.319,0.176 -0.36,0.403 -0.121,0.674 -0.266,1.344 -0.407,2.04 -0.466,0 -0.901,0 -1.336,0 0,0.805 0,1.577 0,2.373 0.454,0 0.88,0 1.342,0 0,0.149 0,0.268 0,0.389 0.001,1.685 -0.011,3.366 0.006,5.051 0.015,1.431 0.652,2.383 1.806,2.66 1.307,0.321 2.591,0.044 3.873,-0.191 0,-0.9 0,-1.757 0,-2.646 -0.441,0.05 -0.843,0.111 -1.248,0.135 -0.465,0.027 -0.636,-0.13 -0.691,-0.59 z"
         id="path20"
         inkscape:connector-curvature="0"
         style="fill:#ffffff;fill-opacity:1" /></g></g><g
     id="g30"
     style="fill:#ffffff;fill-opacity:1"><g
       id="g28"
       style="fill:#ffffff;fill-opacity:1"><path
         d="m 24.775,13.89 c -0.009,-0.006 -0.017,-0.009 -0.027,-0.014 -0.135,0 -0.271,0 -0.406,0 -0.022,0.005 -0.045,0.012 -0.067,0.021 -0.902,0.136 -1.593,0.916 -1.593,1.856 0,0.529 0.219,1.007 0.571,1.349 0.227,0.224 0.517,0.391 0.85,0.475 0.15,0.038 0.304,0.057 0.453,0.055 0.002,0 0.004,0 0.006,0 1.037,0 1.877,-0.841 1.877,-1.878 0,-0.965 -0.726,-1.759 -1.664,-1.864 z"
         id="path26"
         inkscape:connector-curvature="0"
         style="fill:#ffffff;fill-opacity:1" /></g></g><g
     id="g36"
     style="fill:#ffffff;fill-opacity:1"><g
       id="g34"
       style="fill:#ffffff;fill-opacity:1"><path
         d="m 42.757,26.645 c -0.681,-0.104 -0.986,-0.562 -0.888,-1.298 1.647,0 3.306,0 5.074,0 -0.079,-1.127 -0.107,-2.2 -0.249,-3.259 -0.125,-0.928 -0.49,-1.786 -1.201,-2.446 -0.867,-0.807 -1.94,-0.971 -3.06,-0.922 -2.182,0.098 -3.487,1.07 -4.021,3.021 -0.435,1.586 -0.433,3.198 -0.01,4.791 0.403,1.524 1.375,2.502 2.957,2.818 1.409,0.282 2.805,0.221 4.192,-0.13 0.799,-0.201 0.799,-0.199 0.799,-1.021 0,-0.627 0,-1.256 0,-1.912 -0.346,0.062 -0.643,0.117 -0.94,0.168 -0.879,0.146 -1.76,0.33 -2.653,0.19 z m -0.8,-5.036 c 0.02,-0.157 0.109,-0.325 0.217,-0.448 0.338,-0.395 0.957,-0.288 1.062,0.217 0.129,0.62 0.148,1.263 0.221,1.926 -0.605,-10e-4 -1.1,-10e-4 -1.662,-10e-4 0.053,-0.581 0.092,-1.14 0.162,-1.694 z"
         id="path32"
         inkscape:connector-curvature="0"
         style="fill:#ffffff;fill-opacity:1" /></g></g><g
     id="g42"
     style="fill:#ffffff;fill-opacity:1"><g
       id="g40"
       style="fill:#ffffff;fill-opacity:1"><path
         d="m 37.049,22.518 c -0.067,-0.795 -0.217,-1.569 -0.569,-2.29 -0.319,-0.659 -0.793,-1.161 -1.516,-1.36 -1.109,-0.306 -2.168,-0.197 -3.135,0.479 -0.09,0.063 -0.18,0.123 -0.314,0.218 -0.274,-0.725 -0.86,-0.711 -1.465,-0.663 -0.09,0.008 -0.18,10e-4 -0.271,10e-4 -0.584,0 -1.168,0 -1.789,0 0,0.159 0,0.281 0,0.402 0,4.474 0,8.948 0,13.422 0,0.113 0.008,0.229 0.015,0.34 1.243,0 2.485,0 3.729,0 0,-1.238 0,-2.479 0,-3.693 0.555,0.054 1.08,0.149 1.605,0.146 1.801,-0.017 2.881,-0.845 3.418,-2.567 0.022,-0.075 0.045,-0.15 0.063,-0.229 0.358,-1.387 0.353,-2.794 0.229,-4.206 z m -3.84,3.514 c -0.17,0.823 -0.658,1.053 -1.484,0.75 0,-0.226 0,-0.459 0,-0.694 0,-1.343 0.008,-2.686 -0.006,-4.027 -0.002,-0.235 0.08,-0.354 0.287,-0.42 0.117,-0.038 0.23,-0.088 0.35,-0.123 0.511,-0.148 0.843,0.02 0.91,0.543 0.178,1.322 0.216,2.654 -0.057,3.971 z"
         id="path38"
         inkscape:connector-curvature="0"
         style="fill:#ffffff;fill-opacity:1" /></g></g><g
     id="g44"
     style="fill:#ffffff;fill-opacity:1" /><g
     id="g46"
     style="fill:#ffffff;fill-opacity:1" /><g
     id="g48"
     style="fill:#ffffff;fill-opacity:1" /><g
     id="g50"
     style="fill:#ffffff;fill-opacity:1" /><g
     id="g52"
     style="fill:#ffffff;fill-opacity:1" /><g
     id="g54"
     style="fill:#ffffff;fill-opacity:1" /><g
     id="g56"
     style="fill:#ffffff;fill-opacity:1" /><g
     id="g58"
     style="fill:#ffffff;fill-opacity:1" /><g
     id="g60"
     style="fill:#ffffff;fill-opacity:1" /><g
     id="g62"
     style="fill:#ffffff;fill-opacity:1" /><g
     id="g64"
     style="fill:#ffffff;fill-opacity:1" /><g
     id="g66"
     style="fill:#ffffff;fill-opacity:1" /><g
     id="g68"
     style="fill:#ffffff;fill-opacity:1" /><g
     id="g70"
     style="fill:#ffffff;fill-opacity:1" /><g
     id="g72"
     style="fill:#ffffff;fill-opacity:1" /></svg>